<?xml version="1.0" encoding="utf-8"?>
<!-- Generator: Adobe Illustrator 28.1.0, SVG Export Plug-In . SVG Version: 6.00 Build 0)  -->
<svg version="1.1" xmlns="http://www.w3.org/2000/svg" xmlns:xlink="http://www.w3.org/1999/xlink" x="0px" y="0px"
	 viewBox="0 0 512 512" style="enable-background:new 0 0 512 512;" xml:space="preserve">
<style type="text/css">
	.st0{display:none;}
	.st1{display:inline;fill:url(#SVGID_1_);}
	.st2{display:inline;fill:url(#SVGID_00000119824568439654748770000003235629805766472878_);}
	.st3{display:inline;fill:url(#SVGID_00000073681769603652044220000009858641238158457004_);}
	.st4{display:inline;fill:url(#SVGID_00000114774935856808085990000017106230590502566294_);}
	.st5{display:inline;fill:url(#SVGID_00000077290623665377021990000012799671395492965507_);}
	.st6{display:inline;fill:url(#SVGID_00000011022865892920668740000006774365857558337962_);}
	.st7{display:inline;fill:url(#SVGID_00000000219102549281222280000007978031400984529298_);}
	.st8{display:inline;fill:url(#SVGID_00000096023054510206907700000001530033183083540651_);}
	.st9{fill:url(#SVGID_00000120554545691366815250000014052889697928183478_);}
	.st10{fill:#FFFFFF;stroke:#939598;stroke-width:19;stroke-miterlimit:10;}
	.st11{font-family:'LEMONMILK-Regular';}
	.st12{font-size:72px;}
</style>
<g id="Layer_1" class="st0">
	<linearGradient id="SVGID_1_" gradientUnits="userSpaceOnUse" x1="142.867" y1="84.9976" x2="52.9534" y2="243.2455">
		<stop  offset="0" style="stop-color:#00A4E4"/>
		<stop  offset="0.2536" style="stop-color:#008ED1"/>
		<stop  offset="0.8267" style="stop-color:#4656A6"/>
		<stop  offset="1" style="stop-color:#534099"/>
	</linearGradient>
	<path class="st1" d="M63.57,282.32c-1.36-10.25-1.93-20.75-1.62-31.42c1.98-67.7,38.4-126.27,91.97-159.45l-6.48-16.55
		C87.56,110.76,46.66,175.45,44.47,250.39c-0.38,13.05,0.43,25.86,2.33,38.33L63.57,282.32z"/>
	
		<linearGradient id="SVGID_00000011715951295936127070000007946942982270943142_" gradientUnits="userSpaceOnUse" x1="419.2251" y1="137.6779" x2="259.4359" y2="51.3609">
		<stop  offset="0" style="stop-color:#00A4E4"/>
		<stop  offset="0.2536" style="stop-color:#008ED1"/>
		<stop  offset="0.8267" style="stop-color:#4656A6"/>
		<stop  offset="1" style="stop-color:#534099"/>
	</linearGradient>
	<path style="display:inline;fill:url(#SVGID_00000011715951295936127070000007946942982270943142_);" d="M223.11,65.23
		c12.5-2.14,25.4-3.08,38.57-2.69c64.75,1.9,121.15,35.29,154.97,85.06l16.75-6.39c-36.58-56.14-99.16-94.04-171.21-96.15
		c-15.6-0.46-30.85,0.8-45.58,3.58L223.11,65.23z"/>
	
		<linearGradient id="SVGID_00000127730665283140420010000007056326466662097825_" gradientUnits="userSpaceOnUse" x1="78.1829" y1="360.5078" x2="254.9273" y2="462.7523">
		<stop  offset="0" style="stop-color:#00A4E4"/>
		<stop  offset="0.2536" style="stop-color:#008ED1"/>
		<stop  offset="0.8267" style="stop-color:#4656A6"/>
		<stop  offset="1" style="stop-color:#534099"/>
	</linearGradient>
	<path style="display:inline;fill:url(#SVGID_00000127730665283140420010000007056326466662097825_);" d="M293.18,447.15
		c-13.84,2.69-28.18,3.91-42.86,3.48c-70.27-2.06-130.72-41.21-163.13-98.13l-16.51,6.3c35,63.32,101.57,107.05,179.13,109.32
		c17.11,0.5,33.8-1.06,49.84-4.43L293.18,447.15z"/>
	
		<linearGradient id="SVGID_00000091014827715738991960000011187803927723562624_" gradientUnits="userSpaceOnUse" x1="374.7892" y1="429.2013" x2="461.62" y2="250.4017">
		<stop  offset="0" style="stop-color:#00A4E4"/>
		<stop  offset="0.2536" style="stop-color:#008ED1"/>
		<stop  offset="0.8267" style="stop-color:#4656A6"/>
		<stop  offset="1" style="stop-color:#534099"/>
	</linearGradient>
	<path style="display:inline;fill:url(#SVGID_00000091014827715738991960000011187803927723562624_);" d="M445.8,215.66
		c3.22,14.99,4.72,30.59,4.25,46.6c-1.94,66.14-36.74,123.56-88.29,157.12l6.5,16.61c57.85-36.28,97.12-99.83,99.27-173.21
		c0.54-18.38-1.29-36.29-5.2-53.42L445.8,215.66z"/>
	
		<linearGradient id="SVGID_00000080893131787902952380000017672651898123108242_" gradientUnits="userSpaceOnUse" x1="358.078" y1="249.7114" x2="485.7569" y2="249.7114">
		<stop  offset="0" style="stop-color:#00A4E4"/>
		<stop  offset="0.2536" style="stop-color:#008ED1"/>
		<stop  offset="0.8267" style="stop-color:#4656A6"/>
		<stop  offset="1" style="stop-color:#534099"/>
	</linearGradient>
	
		<circle style="display:inline;fill:url(#SVGID_00000080893131787902952380000017672651898123108242_);" cx="421.92" cy="249.71" r="63.84"/>
	
		<linearGradient id="SVGID_00000084510775985976087510000011882393775371962022_" gradientUnits="userSpaceOnUse" x1="22.5607" y1="251.9092" x2="150.2396" y2="251.9092">
		<stop  offset="0" style="stop-color:#00A4E4"/>
		<stop  offset="0.2536" style="stop-color:#008ED1"/>
		<stop  offset="0.8267" style="stop-color:#4656A6"/>
		<stop  offset="1" style="stop-color:#534099"/>
	</linearGradient>
	
		<circle style="display:inline;fill:url(#SVGID_00000084510775985976087510000011882393775371962022_);" cx="86.4" cy="251.91" r="63.84"/>
	
		<linearGradient id="SVGID_00000120517968021631290120000008600668175851091901_" gradientUnits="userSpaceOnUse" x1="190.1431" y1="77.1839" x2="317.822" y2="77.1839">
		<stop  offset="0" style="stop-color:#00A4E4"/>
		<stop  offset="0.2536" style="stop-color:#008ED1"/>
		<stop  offset="0.8267" style="stop-color:#4656A6"/>
		<stop  offset="1" style="stop-color:#534099"/>
	</linearGradient>
	
		<circle style="display:inline;fill:url(#SVGID_00000120517968021631290120000008600668175851091901_);" cx="253.98" cy="77.18" r="63.84"/>
	
		<linearGradient id="SVGID_00000050636287029310371890000006666519941267111562_" gradientUnits="userSpaceOnUse" x1="192.1606" y1="419.4916" x2="319.8394" y2="419.4916">
		<stop  offset="0" style="stop-color:#00A4E4"/>
		<stop  offset="0.2536" style="stop-color:#008ED1"/>
		<stop  offset="0.8267" style="stop-color:#4656A6"/>
		<stop  offset="1" style="stop-color:#534099"/>
	</linearGradient>
	
		<circle style="display:inline;fill:url(#SVGID_00000050636287029310371890000006666519941267111562_);" cx="256" cy="419.49" r="63.84"/>
	
		<linearGradient id="SVGID_00000059271210264345226920000011212600979410490539_" gradientUnits="userSpaceOnUse" x1="68.8429" y1="256" x2="443.157" y2="256">
		<stop  offset="0" style="stop-color:#00A4E4"/>
		<stop  offset="0.2536" style="stop-color:#008ED1"/>
		<stop  offset="0.8267" style="stop-color:#4656A6"/>
		<stop  offset="1" style="stop-color:#534099"/>
	</linearGradient>
	<path style="fill:url(#SVGID_00000059271210264345226920000011212600979410490539_);" d="M256,54.15
		c-103.36,0-187.16,83.79-187.16,187.16c0,48.89,18.76,93.4,49.46,126.74c-10.52,23.97-16.38,50.46-16.38,78.33v11.48h1.92
		c18.89-21.47,42.1-38.22,67.68-49.5c25.38,12.86,54.08,20.12,84.48,20.12c103.36,0,187.16-83.79,187.16-187.16
		S359.36,54.15,256,54.15z"/>
</g>
<g id="Layer_2">
	<g>
		<path class="st10" d="M285.77,77.69v78.84c42.82,12.8,74.04,52.48,74.04,99.47s-31.22,86.67-74.04,99.47v78.84
			c85.67-14.2,151-88.62,151-178.31S371.44,91.88,285.77,77.69z"/>
		<path class="st10" d="M226.23,355.47c-42.82-12.8-74.04-52.48-74.04-99.47s31.22-86.67,74.04-99.47V77.69
			c-85.67,14.2-151,88.62-151,178.31s65.33,164.12,151,178.31V355.47z"/>
	</g>
	<text transform="matrix(1 0 0 1 22.8966 278.5176)" class="st11 st12">O r b i t u m</text>
</g>
</svg>
